<?xml version="1.0" encoding="utf-8"?>
<!-- Generator: Adobe Illustrator 26.1.0, SVG Export Plug-In . SVG Version: 6.00 Build 0)  -->
<svg version="1.1" id="Layer_1" xmlns="http://www.w3.org/2000/svg" xmlns:xlink="http://www.w3.org/1999/xlink" x="0px" y="0px"
	 viewBox="0 0 172.71 138.11" style="enable-background:new 0 0 172.71 138.11;" xml:space="preserve">
<g>
	<path d="M30.8,97.11l-13.54,41H0l44.17-130h20.25l44.36,130H90.94l-13.92-41H30.8z M73.44,83.11l-12.7-37.33
		c-2.89-8.47-4.81-16.16-6.73-23.67h-0.39c-1.92,7.7-4.04,15.59-6.54,23.48l-12.7,37.52H73.44z"/>
	<path d="M49.45,128.99c0-3.07,2.08-5.23,4.98-5.23c2.91,0,4.9,2.16,4.9,5.23c0,2.99-1.91,5.23-4.98,5.23
		C51.44,134.22,49.45,131.98,49.45,128.99z"/>
	<path d="M66.99,15.9c6.3-3.66,16.64-8.21,27.51-11.72c15.51-5,26.38-5.47,35.88-1.63c7.78,2.77,13.9,8.91,17.04,18.65
		c3.85,11.95-0.43,24.9-11.54,33.76l0.12,0.37c12.36-0.74,28.87,4.69,34.8,23.07c3.44,10.66,1.95,20.07-2.15,28.09
		c-5.83,10.61-18.19,18.65-37.8,24.98c-10.7,3.45-19.13,5.36-24.54,6.29L66.99,15.9z M97.18,66.72l11.2-4.66
		c13.05-5.43,17.14-17.18,12.32-28.77c-5.86-14.09-16.67-16.07-29.15-10.88c-5.67,2.36-8.71,4.25-10.47,5.62L97.18,66.72z
		 M121.15,124.31c2.63-0.47,6.25-1.77,10.65-3.6c12.76-5.31,22.08-16.1,14.81-33.57c-6.83-16.4-20.85-18.52-34.32-12.91l-10.21,4.25
		L121.15,124.31z"/>
</g>
<g>
</g>
<g>
</g>
<g>
</g>
<g>
</g>
<g>
</g>
<g>
</g>
</svg>
