<?xml version="1.0" encoding="utf-8"?>
<!-- Generator: Adobe Illustrator 26.1.0, SVG Export Plug-In . SVG Version: 6.00 Build 0)  -->
<svg version="1.1" id="Layer_1" xmlns="http://www.w3.org/2000/svg" xmlns:xlink="http://www.w3.org/1999/xlink" x="0px" y="0px"
	 viewBox="0 0 192.64 124.44" style="enable-background:new 0 0 192.64 124.44;" xml:space="preserve">
<style type="text/css">
	.st0{fill:#F0EFEF;}
</style>
<g>
	<path d="M77.8,98.52H36.16l-7.74,19.13H0l43.47-98.48h27.43l43.61,98.48H85.54L77.8,98.52z M69.64,77.98L56.98,46.47L44.32,77.98
		H69.64z"/>
	<path d="M178.59,45.68c4.79,2.82,8.53,7.16,11.21,13.03c3.91,8.57,3.78,16.62-0.41,24.16c-4.19,7.54-12.25,14.04-24.2,19.49
		l-48.37,22.09L72.17,26.68l45.81-20.92c11.43-5.22,21.19-6.89,29.26-5.01c8.08,1.88,13.9,6.73,17.47,14.55
		c2.13,4.66,2.98,9.3,2.57,13.93c-0.41,4.63-2.05,8.9-4.91,12.79C168.4,41.64,173.8,42.86,178.59,45.68z M110.34,38.29l8.61,18.85
		l17.4-7.95c8.53-3.9,11.35-9.01,8.46-15.34c-2.85-6.24-8.54-7.41-17.07-3.51L110.34,38.29z M167.21,71.1
		c-3.02-6.61-8.97-7.89-17.84-3.84l-21.24,9.7l9.06,19.83l21.24-9.7C167.3,83.04,170.23,77.71,167.21,71.1z"/>
	<path class="st0" d="M91.61,113.86c-2.07-2-3.1-4.54-3.1-7.61c0-3.13,1.02-5.66,3.05-7.6c2.03-1.94,4.58-2.91,7.65-2.91
		c3.13,0,5.7,0.97,7.7,2.91c2,1.94,3,4.48,3,7.6c0,3.07-1.02,5.6-3.05,7.61c-2.04,2-4.59,3-7.65,3
		C96.21,116.87,93.67,115.87,91.61,113.86z"/>
</g>
</svg>
