<svg width="32" height="26" viewBox="0 0 32 26" fill="none" xmlns="http://www.w3.org/2000/svg">
<path d="M1 15.802V10.3045C1 9.51931 1.28835 8.76631 1.8016 8.21112C2.31486 7.65592 3.01099 7.34402 3.73684 7.34402H7.70527C7.97282 7.34395 8.23449 7.25903 8.4579 7.09978L16.6684 1.24399C16.8747 1.09704 17.1139 1.01322 17.3607 1.00144C17.6075 0.989657 17.8526 1.05034 18.0701 1.17707C18.2875 1.30379 18.4692 1.49181 18.5959 1.72121C18.7225 1.9506 18.7894 2.21279 18.7895 2.47999V23.6265C18.7894 23.8937 18.7225 24.1559 18.5959 24.3853C18.4692 24.6147 18.2875 24.8027 18.0701 24.9295C17.8526 25.0562 17.6075 25.1169 17.3607 25.1051C17.1139 25.0933 16.8747 25.0095 16.6684 24.8625L8.4579 19.0067C8.23449 18.8475 7.97282 18.7626 7.70527 18.7625H3.73684C3.01099 18.7625 2.31486 18.4506 1.8016 17.8954C1.28835 17.3402 1 16.5872 1 15.802Z" stroke="black" stroke-width="1.5"/>
<path d="M23.579 6.39223C23.579 6.39223 25.6316 8.61257 25.6316 12.3131C25.6316 16.0137 23.579 18.2341 23.579 18.2341M27.6842 1.95154C27.6842 1.95154 31.1053 5.65211 31.1053 12.3131C31.1053 18.9742 27.6842 22.6747 27.6842 22.6747" stroke="black" stroke-width="1.5" stroke-linecap="round" stroke-linejoin="round"/>
</svg>
